<svg width="581" height="341" viewBox="0 0 581 341" fill="none" xmlns="http://www.w3.org/2000/svg">
<path fill-rule="evenodd" clip-rule="evenodd" d="M290.527 0C130.313 0 0 106.907 0 238.345V613H290.527C450.688 613 581 506.093 581 374.655V238.345C581.001 106.908 450.689 0 290.528 0H290.527ZM290.527 435.498C148.639 435.498 33.638 341.151 33.638 224.781C33.6166 197.404 40.1188 170.288 52.7801 144.958C58.581 134.358 92.3141 78.8318 164.304 78.8318C227.749 78.8318 256.441 115.178 257.379 148.424L260.992 243.216H320.021L323.622 148.424C324.574 115.178 353.252 78.8318 416.697 78.8318C488.701 78.8318 522.42 134.358 528.235 144.958C540.892 170.289 547.39 197.405 547.363 224.782C547.363 341.151 432.361 435.498 290.527 435.498ZM347.98 154.788C347.98 185.738 378.564 210.827 416.289 210.827C454.015 210.827 484.598 185.737 484.598 154.788C484.598 123.838 454.015 98.7491 416.289 98.7491C398.171 98.7431 380.792 104.645 367.98 115.156C355.168 125.667 347.974 139.924 347.981 154.788H347.98ZM96.4579 154.788C96.4579 177.458 113.106 197.895 138.638 206.566C164.17 215.237 193.555 210.434 213.086 194.398C232.619 178.361 238.449 154.251 227.859 133.312C217.269 112.372 192.344 98.731 164.712 98.7491C146.602 98.7543 129.237 104.662 116.437 115.171C103.637 125.681 96.4504 139.931 96.4579 154.788Z" fill="#F5F5F5"/>
</svg>
