<svg xmlns="http://www.w3.org/2000/svg" aria-hidden="true" style="position:absolute;width:0;height:0;overflow:hidden">
  <defs>
    <symbol id="icon-arrow-down" viewBox="0 0 32 32">
      <path d="M6.864 12.205a.657.657 0 0 1 .863-.08l.093.08 8.18 8.48 8.18-8.48a.655.655 0 0 1 .861-.08l.093.08a.72.72 0 0 1 .08.893l-.08.097-9.135 9.471-9.136-9.471a.721.721 0 0 1 0-.991z"/>
    </symbol>
    <symbol id="icon-in" viewBox="0 0 32 32">
      <path d="M26.667 25.333h-4.42V18.77c0-1.717-.692-2.889-2.213-2.889-1.161 0-1.808.791-2.109 1.553-.113.273-.096.655-.096 1.036v6.863H13.45s.056-11.624 0-12.68h4.379v1.989c.259-.871 1.659-2.112 3.892-2.112 2.771 0 4.947 1.824 4.947 5.752v7.051zM9.021 11.067h-.029c-1.411 0-2.325-.969-2.325-2.2 0-1.252.941-2.2 2.381-2.2 1.439 0 2.323.947 2.351 2.199 0 1.228-.912 2.2-2.377 2.2v.001zm-1.85 1.586h3.899v12.68H7.171v-12.68z"/>
    </symbol>
    <symbol id="icon-twitter" viewBox="0 0 32 32">
      <path d="M24.269 10.493s1.711-.124 2.397-.6c0 0-.164.547-2.224 2.277 0 0 .693 9.337-9.869 11.624 0 0-5.357 1.061-9.24-1.645 0 0 4.064.671 6.351-1.673 0 0-2.949.027-3.883-2.763 0 0 1.113.223 1.776-.056 0 0-3.341-.641-3.28-4.017 0 0 .903.613 1.715.501 0 0-3.009-2.372-1.144-5.328 0 0 4.032 4.42 9.029 4.157a3.727 3.727 0 0 1-.133-.991c0-2.197 1.923-3.98 4.293-3.98 1.199 0 2.283.456 3.061 1.189a5.196 5.196 0 0 0 2.92-.864s.067.851-1.769 2.169v-.001z"/>
    </symbol>
    <symbol id="icon-ig" viewBox="0 0 32 32">
      <path d="M17.511 5.333c1.572.007 1.987.023 2.888.064 1.135.052 1.911.232 2.589.496a5.233 5.233 0 0 1 1.889 1.229 5.233 5.233 0 0 1 1.229 1.889c.264.68.444 1.453.496 2.589.041.901.057 1.316.063 2.888l.001.536v2.485a55.218 55.218 0 0 1-.064 2.888c-.052 1.135-.232 1.911-.496 2.589a5.233 5.233 0 0 1-1.229 1.889 5.233 5.233 0 0 1-1.889 1.229c-.68.264-1.453.444-2.589.496-.901.041-1.316.057-2.888.063l-.536.001h-1.949c-2.025-.003-2.427-.019-3.424-.064-1.135-.052-1.911-.232-2.589-.496a5.233 5.233 0 0 1-1.889-1.229 5.233 5.233 0 0 1-1.229-1.889c-.264-.68-.444-1.453-.496-2.589a54.363 54.363 0 0 1-.063-2.888v-3.021c.005-1.572.021-1.987.063-2.888.052-1.135.232-1.911.496-2.589a5.233 5.233 0 0 1 1.229-1.889 5.233 5.233 0 0 1 1.889-1.229c.68-.264 1.453-.444 2.589-.496a54.363 54.363 0 0 1 2.888-.063l3.021-.001zm-.28 1.923H14.77a68.994 68.994 0 0 0-2.215.027l-.353.012-.512.023c-1.04.047-1.605.221-1.98.367-.499.193-.853.425-1.227.799s-.605.728-.799 1.227c-.147.375-.32.94-.367 1.98l-.023.512-.013.353a79.529 79.529 0 0 0-.027 2.215v2.461c.004 1.139.011 1.703.027 2.215l.013.353.023.512c.047 1.04.221 1.605.367 1.98.193.499.425.853.799 1.227s.728.605 1.227.799c.375.147.94.32 1.98.367l.512.023.353.013c.512.016 1.076.023 2.215.027h2.461a79.529 79.529 0 0 0 2.215-.027l.353-.013.512-.023c1.04-.047 1.605-.221 1.98-.367.499-.193.853-.425 1.227-.799s.605-.728.799-1.227c.147-.375.32-.94.367-1.98l.023-.512.013-.353c.016-.512.023-1.076.027-2.215v-2.461a79.529 79.529 0 0 0-.027-2.215l-.013-.353-.023-.512c-.047-1.04-.221-1.605-.367-1.98-.193-.499-.425-.853-.799-1.227s-.728-.605-1.227-.799c-.375-.147-.94-.32-1.98-.367l-.512-.023-.353-.013a79.529 79.529 0 0 0-2.215-.027v.001zM16 10.523a5.477 5.477 0 1 1 0 10.954 5.477 5.477 0 0 1 0-10.954zm0 1.921a3.556 3.556 0 1 0 0 7.112 3.556 3.556 0 0 0 0-7.112zm5.693-3.419a1.28 1.28 0 1 1 0 2.56 1.28 1.28 0 0 1 0-2.56z"/>
    </symbol>
    <symbol id="icon-fb" viewBox="0 0 32 32">
      <path d="M17.777 12.444v-2.116c0-.956.212-1.44 1.695-1.44h1.861V5.333h-3.107c-3.804 0-5.06 1.744-5.06 4.739v2.373h-2.5V16h2.5v10.667h4.611V16h3.133l.423-3.556h-3.556z"/>
    </symbol>
    <symbol id="icon-yt" viewBox="0 0 32 32">
      <path d="M13.797 18.951v-6.392l5.763 3.207-5.763 3.185zm12.656-7.499s-.209-1.568-.848-2.259c-.811-.907-1.72-.911-2.137-.963-2.985-.231-7.463-.231-7.463-.231h-.011s-4.477 0-7.461.231c-.417.053-1.327.056-2.139.963-.639.691-.847 2.259-.847 2.259s-.215 1.84-.215 3.68v1.727c0 1.841.213 3.683.213 3.683s.208 1.567.847 2.257c.813.907 1.879.877 2.353.973 1.707.172 7.253.228 7.253.228s4.483-.007 7.468-.237c.417-.053 1.327-.057 2.137-.964.64-.691.848-2.257.848-2.257s.213-1.84.213-3.683v-1.725c0-1.84-.213-3.681-.213-3.681z"/>
    </symbol>
    <symbol id="icon-arrow-footer" viewBox="0 0 32 32">
      <path d="m8.021 25.733 13.776-13.739v10.603h2.016V8.448H9.626v2.053l10.715-.037L6.565 24.24l1.456 1.493z"/>
    </symbol>
    <symbol id="icon-arrow-hoots" viewBox="0 0 32 32">
      <path d="m8.021 25.733 13.776-13.739v10.603h2.016V8.448H9.626v2.053l10.715-.037L6.565 24.24l1.456 1.493z"/>
    </symbol>
    <symbol id="icon-arrow-possibility" viewBox="0 0 32 32">
      <path d="m8.021 25.733 13.776-13.739v10.603h2.016V8.448H9.626v2.053l10.715-.037L6.565 24.24l1.456 1.493z"/>
    </symbol>
    <symbol id="icon-play" viewBox="0 0 32 32">
      <path stroke-width="1.333" d="M15.769 30.872c8.341 0 15.103-6.762 15.103-15.103S24.11.666 15.769.666C7.428.666.666 7.428.666 15.769s6.762 15.103 15.103 15.103z"/>
      <path stroke-linecap="square" stroke-width="1.333" d="m19.353 15.769-5.376 3.225v-6.451l5.376 3.225z"/>
    </symbol>
    <symbol id="icon-buy" viewBox="0 0 32 32">
      <path d="M16.667 1.839c4.485 0 6.797 2.795 6.821 8.027l3.179.001a.8.8 0 0 1 .792.687l2.013 14.101a4.8 4.8 0 0 1-4.751 5.479H8.612a4.8 4.8 0 0 1-4.752-5.48l2.015-14.099a.8.8 0 0 1 .792-.688h3.235c-.015-5.231 2.28-8.028 6.765-8.028zm9.306 9.628H7.358L5.43 24.994l-.011.113-.008.227a3.2 3.2 0 0 0 3.2 3.2H24.72a3.201 3.201 0 0 0 3.168-3.652l-1.916-13.415zm-9.306-8.028c-3.509 0-5.192 2.023-5.165 6.427l10.387.001c-.008-4.404-1.711-6.427-5.221-6.427v-.001z"/>
    </symbol>
  </defs>
</svg>
