<svg width="168" height="48" viewBox="0 0 168 48" fill="none" xmlns="http://www.w3.org/2000/svg">
<path fill-rule="evenodd" clip-rule="evenodd" d="M11.943 0C19.308 0 22.959 3.585 22.959 11.5605V36.6075C22.959 44.4165 19.3725 48 11.943 48C4.515 48 1.0005 44.415 1.0005 36.6075V11.5605C1.0005 3.5835 4.578 0 11.943 0ZM157.185 0C164.046 0 167.265 3.3525 167.265 10.464V13.488L159.405 14.4795V10.3995C159.405 7.4085 158.607 6.2805 157.009 6.2805C155.809 6.2805 155.187 7.1445 155.187 8.6805C155.187 10.9035 155.987 13.9605 159.181 18.3765L162.297 22.8C165.412 27.216 168 31.335 168 37.545C168 44.3595 164.421 47.9445 157.519 47.9445C150.619 47.9445 146.968 44.448 146.968 36.936V33.048L155.163 31.9995V36.984C155.163 40.3035 155.898 41.568 157.72 41.568C158.951 41.568 159.645 40.5675 159.645 38.808C159.645 35.4165 158.487 32.0955 155.467 27.6795L152.448 23.232C149.46 18.807 147.041 15.057 147.041 10.272C147.064 3.1995 150.547 0 157.185 0ZM32.097 0.7275L33.6225 21.2955C33.99 26.0955 34.125 29.3685 34.1895 35.0475H34.9155C35.0205 29.4 35.187 26.0085 35.547 21.2955L37.1445 0.7275H45.468L46.9935 21.2955C47.3535 26.0085 47.4885 29.4 47.5935 35.0475H48.3195C48.4545 29.4 48.5835 26.112 48.9495 21.2955L50.478 0.7275H58.7055L53.16 47.2395H43.575L42.48 32.8005C42.0165 26.9595 41.754 22.3995 41.5545 16.3275H40.8585C40.6275 22.44 40.3875 26.9205 39.924 32.8005L38.829 47.2005H29.316L23.5095 0.7275H32.097ZM68.472 0.7275V40.224H75.6615V47.2395H59.8455V0.7275H68.472ZM91.533 0.7275V40.224H98.7225V47.2395H82.914V0.7275H91.533ZM117.093 0.7275L123.213 47.2395H114.273L113.811 41.2875H108.636L108.171 47.2395H99.8805L105.75 0.7275H117.093ZM136.648 0.7275C142.687 0.7275 145.244 3.5205 145.244 9.7995V15.2805C145.244 19.728 143.445 21.624 140.627 22.6245V23.352C143.821 24.48 145.834 26.7765 145.834 31.9605V37.9035C145.834 44.304 143.086 47.2395 137.047 47.2395H124.347V0.7275H136.647H136.648ZM11.9745 6.7125C10.41 6.7125 9.6585 7.9035 9.6585 10.3995V37.8315C9.6585 40.1595 10.4175 41.2875 11.9745 41.2875C13.533 41.2875 14.2995 40.1595 14.2995 37.8315V10.3995C14.2995 7.9035 13.5405 6.7125 11.9745 6.7125ZM134.89 26.208H132.966V40.608L134.89 40.56C136.416 40.56 137.016 39.7605 137.016 37.5675V29.0955C137.016 26.976 136.416 26.208 134.89 26.208ZM111.51 12.0555H110.815C110.68 18.0075 110.448 21.528 110.089 27.408L109.29 35.4075H113.107L112.31 27.408C111.942 21.528 111.709 18.0075 111.51 12.0555ZM134.795 7.344H132.964V19.9995H134.795C136.32 19.9995 136.911 19.3035 136.911 17.2395V10.2C136.911 8.1045 136.32 7.344 134.796 7.344H134.795Z" fill="#141414"/>
</svg>
